<svg width="68" height="49" viewBox="0 0 68 49" fill="none" xmlns="http://www.w3.org/2000/svg">
<path d="M24.7863 48.4302H23.3692L17.6696 38.9436V48.4302H16.2525V36.4993H17.6696L23.3692 45.9688V36.4993H24.7863V48.4302ZM32.1229 48.5499C31.1159 48.5499 30.1971 48.2935 29.3666 47.7807C28.536 47.2565 27.8768 46.5329 27.3888 45.6099C26.9113 44.6755 26.6725 43.6271 26.6725 42.4648C26.6725 41.3024 26.9113 40.2598 27.3888 39.3367C27.8768 38.4023 28.536 37.6787 29.3666 37.1659C30.1971 36.6417 31.1159 36.3796 32.1229 36.3796C33.1403 36.3796 34.0643 36.6417 34.8948 37.1659C35.7253 37.6787 36.3794 38.3966 36.8569 39.3196C37.3345 40.2427 37.5733 41.291 37.5733 42.4648C37.5733 43.6385 37.3345 44.6868 36.8569 45.6099C36.3794 46.5329 35.7253 47.2565 34.8948 47.7807C34.0643 48.2935 33.1403 48.5499 32.1229 48.5499ZM32.1229 47.1995C32.8808 47.1995 33.5608 47.0058 34.1629 46.6184C34.7754 46.2309 35.253 45.6782 35.5956 44.9603C35.9485 44.2424 36.125 43.4106 36.125 42.4648C36.125 41.5075 35.9485 40.6757 35.5956 39.9692C35.253 39.2513 34.7806 38.6986 34.1785 38.3111C33.5763 37.9237 32.8911 37.73 32.1229 37.73C31.3546 37.73 30.6695 37.9237 30.0673 38.3111C29.4652 38.6986 28.9876 39.2513 28.6346 39.9692C28.292 40.6757 28.1208 41.5075 28.1208 42.4648C28.1208 43.4106 28.292 44.2424 28.6346 44.9603C28.9876 45.6782 29.4652 46.2309 30.0673 46.6184C30.6798 47.0058 31.365 47.1995 32.1229 47.1995ZM40.8611 37.7813V41.7639H44.8165V43.0459H40.8611V47.1482H45.2837V48.4302H39.444V36.4993H45.2837V37.7813H40.8611ZM48.8451 47.1653H52.645V48.4302H47.428V36.5164H48.8451V47.1653Z" fill="white"/>
<path d="M64.968 12.5937C64.5528 11.853 64.1894 11.0554 63.826 10.2577C62.5802 7.57979 61.9054 4.04722 63.3589 0.00186982C63.0993 -0.0551069 62.3726 1.19838 61.8535 2.6228C61.3344 4.04722 61.023 5.0728 60.8673 6.83909C60.7115 8.83327 60.9192 10.9984 61.3863 12.9926C63.307 21.0263 60.9192 27.2937 55.0016 32.0228C53.1329 33.5042 53.2367 35.0426 53.9115 36.9228C54.1192 37.4926 54.4306 38.0623 54.7421 38.5751C57.6489 43.2472 60.9711 43.4182 63.5665 38.6321C68.1344 30.2565 69.6398 21.5961 64.968 12.5937Z" fill="white"/>
<path d="M12.8227 32.0228C6.90517 27.2937 4.5174 21.0263 6.43799 12.9926C6.90517 10.9984 7.16471 8.89025 6.95707 6.83909C6.80135 5.0728 6.4899 4.04722 5.97081 2.6228C5.45173 1.19838 4.72503 -0.0551069 4.46549 0.00186982C5.91891 4.04722 5.2441 7.57979 3.99832 10.2577C3.63496 11.0554 3.2716 11.7961 2.85633 12.5937C-1.81542 21.5961 -0.310084 30.2565 4.15404 38.6321C6.69753 43.4182 10.0716 43.2472 12.9784 38.5751C13.2899 38.0623 13.6013 37.4926 13.809 36.9228C14.5876 34.9856 14.6914 33.5042 12.8227 32.0228Z" fill="white"/>
</svg>
